<?xml version="1.0" standalone="no"?>
<!DOCTYPE svg PUBLIC "-//W3C//DTD SVG 20010904//EN"
 "http://www.w3.org/TR/2001/REC-SVG-20010904/DTD/svg10.dtd">
<svg version="1.0" xmlns="http://www.w3.org/2000/svg"
 width="99.000000pt" height="99.000000pt" viewBox="0 0 99.000000 99.000000"
 preserveAspectRatio="xMidYMid meet">
<metadata>
Created by potrace 1.14, written by Peter Selinger 2001-2017
</metadata>
<g transform="translate(0.000000,99.000000) scale(0.100000,-0.100000)"
fill="#000000" stroke="none">
<path d="M433 948 c-15 -19 -15 -256 0 -265 22 -13 135 -12 147 2 7 8 10 60 8
141 l-3 129 -71 3 c-49 2 -74 -1 -81 -10z"/>
<path d="M165 822 c-18 -12 -85 -99 -85 -109 0 -12 31 -39 129 -116 76 -60 79
-61 97 -49 14 10 84 103 84 113 0 9 -198 169 -209 169 -3 0 -11 -4 -16 -8z"/>
<path d="M730 754 c-52 -42 -96 -84 -98 -95 -3 -19 73 -119 90 -119 9 0 115
78 147 108 7 7 24 20 37 29 13 8 24 23 24 33 0 21 -77 120 -93 120 -7 0 -55
-34 -107 -76z"/>
<path d="M175 479 c-44 -11 -97 -24 -119 -30 l-38 -10 5 -47 c6 -52 21 -97 35
-106 16 -10 251 48 257 63 7 17 -14 121 -28 139 -12 15 -13 15 -112 -9z"/>
<path d="M726 492 c-14 -23 -34 -138 -25 -147 13 -13 239 -64 256 -58 17 7 27
45 27 108 l1 49 -115 28 c-127 30 -137 32 -144 20z"/>
<path d="M285 199 c-30 -62 -55 -118 -55 -125 0 -17 91 -64 125 -64 23 0 32
13 80 111 46 93 53 115 42 127 -13 17 -105 62 -125 62 -7 0 -37 -50 -67 -111z"/>
<path d="M588 279 c-32 -16 -58 -35 -58 -42 0 -6 23 -60 52 -119 48 -100 54
-108 80 -108 31 0 82 19 112 43 19 14 18 17 -29 118 -51 109 -71 139 -89 139
-6 -1 -37 -14 -68 -31z"/>
</g>
</svg>
