<svg width="61" height="62" viewBox="0 0 61 62" fill="none" xmlns="http://www.w3.org/2000/svg">
<path d="M44.2482 24.9129L53.032 26.5089L46.8606 60.4727L35.1489 58.3447L40.8994 26.6972" stroke="white" stroke-width="1.3" stroke-linecap="round" stroke-linejoin="round"/>
<path d="M47.4237 16.3677C47.8298 18.3086 47.5504 20.3302 46.633 22.0881C45.7157 23.8461 44.2172 25.2315 42.3929 26.0085C40.5686 26.7854 38.5313 26.9058 36.6282 26.3491C34.7251 25.7923 33.0739 24.5929 31.956 22.9552C30.838 21.3176 30.3225 19.3429 30.4973 17.3677C30.672 15.3926 31.5263 13.5391 32.9144 12.1232C34.3025 10.7072 36.1387 9.81637 38.11 9.60244C40.0813 9.38851 42.0658 9.86473 43.7253 10.9499" stroke="white" stroke-width="1.3" stroke-linecap="round" stroke-linejoin="round"/>
<path d="M1.18555 52.1738L51.5457 61.3245" stroke="white" stroke-width="1.3" stroke-linecap="round" stroke-linejoin="round"/>
<rect x="7.67773" y="36.4155" width="11.9034" height="16.6648" transform="rotate(10.2985 7.67773 36.4155)" stroke="white" stroke-width="1.3" stroke-linecap="round" stroke-linejoin="round"/>
<path d="M23.3333 36.8137L19.9237 55.5784L31.6353 57.7064L36.1042 33.1119L29.0772 31.8351" stroke="white" stroke-width="1.3" stroke-linecap="round" stroke-linejoin="round"/>
<path d="M29.0462 28.238C29.3666 29.7694 29.1461 31.3646 28.4223 32.7517C27.6985 34.1389 26.5161 35.2321 25.0766 35.8451C23.6371 36.4582 22.0296 36.5532 20.5279 36.1139C19.0262 35.6746 17.7233 34.7282 16.8412 33.4359C15.9591 32.1437 15.5523 30.5856 15.6902 29.0271C15.8281 27.4685 16.5022 26.006 17.5975 24.8888C18.6928 23.7715 20.1416 23.0686 21.6971 22.8998C23.2526 22.731 24.8185 23.1067 26.1279 23.963" stroke="white" stroke-width="1.3" stroke-linecap="round" stroke-linejoin="round"/>
<path d="M39.863 20.5231C39.9248 20.1828 39.8676 19.8829 39.6915 19.6235C39.5161 19.3601 39.1922 19.0944 38.7198 18.8267C38.2481 18.5549 37.886 18.3175 37.6335 18.1144C36.7917 17.4446 36.4599 16.6193 36.6381 15.6386C36.7588 14.9741 37.0603 14.4644 37.5424 14.1095C38.0245 13.7547 38.6191 13.6001 39.3262 13.6459L39.5641 12.3369L40.5248 12.5115L40.2847 13.8325C40.9631 14.0591 41.4477 14.4532 41.7385 15.0146C42.03 15.5721 42.1045 16.2431 41.962 17.0277L40.5089 16.7637C40.6005 16.2593 40.5584 15.8423 40.3826 15.5126C40.2116 15.1796 39.9319 14.9779 39.5436 14.9073C39.1593 14.8375 38.8402 14.887 38.5862 15.0559C38.3322 15.2248 38.1699 15.5034 38.0994 15.8917C38.0361 16.2399 38.0913 16.5394 38.2649 16.7901C38.4432 17.0376 38.7715 17.3019 39.2497 17.5832C39.7279 17.8644 40.0985 18.1116 40.3617 18.3248C40.6248 18.5381 40.8375 18.7669 40.9998 19.0115C41.1629 19.252 41.2741 19.5162 41.3334 19.804C41.3928 20.0918 41.3897 20.4159 41.3243 20.7762C41.2013 21.4527 40.8935 21.9633 40.4009 22.3079C39.9122 22.6533 39.2906 22.7968 38.5363 22.7383L38.3235 23.9092L37.3688 23.7357L37.5805 22.5708C36.8039 22.3387 36.245 21.9436 35.904 21.3854C35.567 20.8279 35.4705 20.1529 35.6145 19.3603L37.0736 19.6254C36.9819 20.1298 37.0371 20.543 37.2391 20.865C37.4451 21.1878 37.7803 21.3914 38.2446 21.4757C38.701 21.5587 39.0672 21.5115 39.3434 21.3342C39.6236 21.1577 39.7968 20.8873 39.863 20.5231Z" fill="white"/>
</svg>
