<svg width="54" height="44" viewBox="0 0 54 44" fill="none" xmlns="http://www.w3.org/2000/svg">
<path d="M11.6325 31.2664C11.166 32.0212 11.0663 33.2267 12.1551 33.9311C13.932 35.0805 15.3508 33.3313 16.103 31.9959" stroke="#3D50F9" stroke-width="1.3"/>
<path d="M33.2802 19.7791L43.7912 22.3024C44.9551 22.5818 46.1332 21.8975 46.4673 20.7482C46.811 19.5654 46.1362 18.3268 44.956 17.9744L27.3295 12.7107L21.3838 18.6698C20.8342 19.2206 20.0033 19.3784 19.29 19.0675C18.2573 18.6173 17.8451 17.3695 18.4062 16.3927L21.9703 10.1885C22.8211 8.70751 24.3185 7.71248 26.0135 7.50187L36.6822 6.17626L41.6673 2.37984M45.2423 18.0599L49.0325 15.7522M21.1309 11.4914L19.5982 11.5635C18.0586 11.6359 16.6035 12.2885 15.5255 13.3901L14.2345 14.7093C13.6093 15.3481 12.7355 15.6805 11.8438 15.6187L8.4998 15.3868M5.92352 30.3778L18.7886 32.5024" stroke="#3D50F9" stroke-width="1.3"/>
<path d="M41.0872 21.6525L42.8867 22.0811C43.9425 22.3325 44.585 23.4028 44.3106 24.4528C44.0613 25.4066 43.1349 26.0205 42.1594 25.8783L32.1357 24.4175" stroke="#3D50F9" stroke-width="1.3"/>
<path d="M38.9681 25.4107L40.7987 25.6704C41.8737 25.8229 42.6132 26.8295 42.4372 27.901C42.2775 28.8734 41.4128 29.5708 40.4286 29.5208L32.1496 29.1004" stroke="#3D50F9" stroke-width="1.3"/>
<path d="M36.2847 29.2969L38.1279 29.4535C39.2092 29.5454 40.0036 30.5084 39.8881 31.5875C39.7833 32.5677 38.9583 33.3124 37.9725 33.3167L31.1881 33.351" stroke="#3D50F9" stroke-width="1.3"/>
<path d="M18.7477 30.2066C18.6885 29.0813 19.5527 28.1211 20.6779 28.0619C21.8032 28.0027 22.7634 28.8669 22.8226 29.9922L23.0078 33.5126C23.0671 34.6379 22.2029 35.5981 21.0776 35.6573C19.9524 35.7165 18.9922 34.8523 18.933 33.7271L18.7477 30.2066Z" stroke="#3D50F9" stroke-width="1.3"/>
<path d="M22.8219 30.0127C22.7627 28.8875 23.6269 27.9273 24.7522 27.8681C25.8774 27.8089 26.8376 28.6731 26.8968 29.7983L27.0821 33.3188C27.1413 34.444 26.2771 35.4042 25.1518 35.4634C24.0266 35.5226 23.0664 34.6584 23.0072 33.5332L22.8219 30.0127Z" stroke="#3D50F9" stroke-width="1.3"/>
<path d="M26.9069 29.7295C26.8477 28.6043 27.7119 27.6441 28.8371 27.5849C29.9624 27.5257 30.9226 28.3899 30.9818 29.5151L31.167 33.0356C31.2262 34.1608 30.3621 35.121 29.2368 35.1802C28.1116 35.2394 27.1514 34.3752 27.0922 33.25L26.9069 29.7295Z" stroke="#3D50F9" stroke-width="1.3"/>
</svg>
