<svg width="456" height="456" viewBox="0 0 456 456" fill="none" xmlns="http://www.w3.org/2000/svg">
<path fill-rule="evenodd" clip-rule="evenodd" d="M437.311 228.003L437.342 230.096L437.436 232.192L437.592 234.292L437.81 236.4L438.088 238.516L438.426 240.644L438.821 242.784L439.271 244.941L439.775 247.114L440.33 249.307L440.933 251.521L441.581 253.757L442.27 256.016L442.996 258.301L443.755 260.611L444.542 262.949L445.352 265.313L446.179 267.705L447.018 270.125L447.862 272.572L448.705 275.045L449.539 277.544L450.357 280.067L451.151 282.612L451.914 285.178L452.638 287.762L453.313 290.361L453.932 292.971L454.486 295.59L454.966 298.213L455.365 300.835L455.673 303.452L455.884 306.06L455.99 308.652L455.983 311.224L455.858 313.77L455.608 316.285L455.23 318.763L454.718 321.198L454.07 323.585L453.283 325.919L452.357 328.196L451.292 330.411L450.088 332.559L448.749 334.638L447.276 336.645L445.675 338.576L443.951 340.431L442.11 342.208L440.159 343.908L438.105 345.529L435.958 347.074L433.726 348.543L431.418 349.94L429.044 351.266L426.615 352.526L424.139 353.724L421.628 354.864L419.09 355.951L416.536 356.99L413.976 357.987L411.418 358.949L408.871 359.881L406.344 360.79L403.845 361.684L401.382 362.568L398.961 363.45L396.591 364.338L394.275 365.239L392.022 366.16L389.836 367.109L387.723 368.094L385.687 369.123L383.733 370.204L381.865 371.346L380.088 372.558L378.404 373.848L376.818 375.226L375.334 376.702L373.948 378.28L372.651 379.956L371.434 381.726L370.287 383.587L369.201 385.534L368.168 387.564L367.18 389.671L366.228 391.852L365.305 394.1L364.403 396.41L363.515 398.777L362.632 401.194L361.749 403.654L360.856 406.15L359.948 408.675L359.018 411.221L358.059 413.778L357.065 416.339L356.029 418.894L354.947 421.433L353.811 423.947L352.618 426.426L351.363 428.859L350.042 431.238L348.651 433.551L347.188 435.79L345.649 437.944L344.034 440.005L342.341 441.965L340.57 443.815L338.721 445.549L336.796 447.16L334.795 448.643L332.722 449.993L330.579 451.208L328.369 452.284L326.098 453.221L323.768 454.019L321.384 454.678L318.953 455.2L316.478 455.59L313.967 455.849L311.423 455.984L308.853 456L306.262 455.903L303.655 455.7L301.039 455.399L298.416 455.008L295.794 454.533L293.175 453.985L290.563 453.371L287.964 452.7L285.378 451.98L282.811 451.22L280.264 450.428L277.739 449.611L275.238 448.778L272.763 447.936L270.314 447.092L267.892 446.252L265.498 445.424L263.131 444.612L260.792 443.823L258.479 443.062L256.192 442.333L253.931 441.641L251.693 440.99L249.478 440.383L247.284 439.824L245.109 439.316L242.951 438.861L240.809 438.461L238.68 438.119L236.563 437.836L234.455 437.614L232.355 437.453L230.258 437.354L228.165 437.317L226.071 437.344L223.976 437.433L221.876 437.584L219.769 437.797L217.654 438.07L215.527 438.403L213.387 438.794L211.232 439.24L209.06 439.74L206.869 440.291L204.657 440.89L202.423 441.535L200.166 442.22L197.883 442.944L195.575 443.7L193.239 444.485L190.877 445.293L188.487 446.12L186.07 446.958L183.625 447.802L181.154 448.644L178.657 449.479L176.136 450.299L173.592 451.096L171.028 451.862L168.445 452.588L165.848 453.268L163.238 453.892L160.62 454.451L157.998 454.937L155.375 455.343L152.757 455.659L150.149 455.878L147.555 455.992L144.981 455.994L142.433 455.879L139.916 455.639L137.435 455.271L134.996 454.77L132.605 454.133L130.266 453.358L127.985 452.443L125.765 451.389L123.611 450.196L121.526 448.867L119.514 447.405L117.577 445.814L115.716 444.099L113.932 442.267L112.227 440.324L110.599 438.279L109.049 436.139L107.573 433.913L106.171 431.611L104.839 429.242L103.574 426.816L102.371 424.344L101.227 421.835L100.136 419.299L99.0933 416.746L98.0928 414.186L97.1285 411.628L96.1942 409.08L95.2833 406.551L94.389 404.049L93.5043 401.583L92.6221 399.159L91.735 396.783L90.8358 394.464L89.9168 392.205L88.9703 390.014L87.9884 387.895L86.9632 385.852L85.8864 383.892L84.7495 382.017L83.5438 380.232L82.2601 378.54L80.8892 376.947L79.4211 375.454L77.8514 374.061L76.1832 372.758L74.4203 371.534L72.5665 370.382L70.6259 369.291L68.6027 368.254L66.5014 367.263L64.3268 366.309L62.0839 365.384L59.7784 364.48L57.4159 363.591L55.0028 362.708L52.5458 361.825L50.052 360.934L47.5291 360.027L44.985 359.099L42.4281 358.143L39.8674 357.151L37.3119 356.119L34.7712 355.04L32.2549 353.909L29.773 352.721L27.3355 351.471L24.9523 350.155L22.6334 348.77L20.3885 347.312L18.2271 345.78L16.158 344.171L14.19 342.484L12.3307 340.719L10.5874 338.877L8.96642 336.957L7.47317 334.963L6.11211 332.895L4.8867 330.758L3.79929 328.553L2.85118 326.286L2.04256 323.96L1.37255 321.581L0.839207 319.153L0.439597 316.682L0.169832 314.173L0.0251515 311.632L0 309.064L0.0881193 306.474L0.282641 303.869L0.576187 301.252L0.960964 298.63L1.42887 296.008L1.97157 293.388L2.58061 290.776L3.2475 288.175L3.96376 285.589L4.72102 283.02L5.51109 280.471L6.32597 277.944L7.15794 275.441L7.99959 272.964L8.84381 270.513L9.68389 268.089L10.5134 265.692L11.3265 263.323L12.1175 260.982L12.8812 258.667L13.6128 256.378L14.308 254.115L14.9626 251.875L15.573 249.658L16.1358 247.462L16.6483 245.286L17.1076 243.127L17.5116 240.984L17.8583 238.854L18.146 236.736L18.3734 234.627L18.5395 232.526L18.6435 230.43L18.6848 228.336L18.6634 226.243L18.5794 224.147L18.433 222.048L18.2251 219.942L17.9564 217.827L17.6283 215.701L17.2424 213.563L16.8005 211.409L16.3047 209.238L15.7576 207.049L15.162 204.839L14.5211 202.606L13.8384 200.35L13.118 198.07L12.364 195.764L11.5811 193.431L10.7745 191.07L9.94956 188.683L9.11217 186.267L8.26855 183.825L7.42533 181.356L6.58948 178.861L5.76833 176.342L4.96951 173.8L4.20092 171.237L3.4707 168.656L2.78717 166.059L2.15877 163.45L1.59402 160.833L1.10138 158.21L0.68923 155.588L0.365762 152.969L0.138875 150.36L0.0160912 147.764L0.00445219 145.189L0.110421 142.638L0.339787 140.118L0.697572 137.634L1.18795 135.192L1.81417 132.797L2.57849 130.454L3.48214 128.168L4.52526 125.943L5.70692 123.783L7.0251 121.693L8.47668 119.675L10.0575 117.731L11.7625 115.864L13.5856 114.075L15.5198 112.363L17.5576 110.729L19.6905 109.173L21.9099 107.691L24.2062 106.283L26.57 104.946L28.9913 103.675L31.4602 102.468L33.9666 101.319L36.5006 100.224L39.0524 99.1779L41.6125 98.1742L44.1715 97.2073L46.7206 96.2709L49.2512 95.3583L51.7551 94.4629L54.2246 93.5777L56.6524 92.6955L59.0317 91.8092L61.3561 90.9112L63.6195 89.994L65.8165 89.05L67.9417 88.0712L69.9902 87.0497L71.9576 85.9773L73.8395 84.8455L75.6318 83.6456L77.3306 82.3685L78.9321 81.0048L80.4326 79.5448L81.8334 77.9831L83.1438 76.3226L84.3733 74.567L85.5312 72.7203L86.6262 70.7865L87.667 68.7697L88.6618 66.6744L89.6187 64.5054L90.5456 62.2678L91.4503 59.9669L92.3404 57.6087L93.2233 55.1994L94.1065 52.7456L94.997 50.2545L95.9019 47.7336L96.828 45.1908L97.782 42.6347L98.7703 40.0739L99.799 37.5176L100.874 34.9753L102.001 32.4567L103.184 29.9717L104.429 27.5302L105.739 25.1423L107.119 22.8179L108.571 20.5668L110.097 18.3983L111.7 16.3216L113.38 14.3452L115.139 12.477L116.975 10.7242L118.889 9.09321L120.877 7.5896L122.939 6.21786L125.071 4.98153L127.271 3.88306L129.533 2.92383L131.854 2.10411L134.229 1.42311L136.653 0.878976L139.121 0.468843L141.627 0.188899L144.166 0.0344496L146.733 0L149.321 0.0793443L151.925 0.265659L154.54 0.551603L157.162 0.929413L159.785 1.391L162.405 1.92806L165.018 2.53214L167.62 3.19474L170.207 3.90738L172.778 4.66169L175.328 5.44945L177.857 6.26265L180.361 7.09354L182.841 7.93469L185.294 8.77897L187.72 9.61962L190.119 10.4503L192.49 11.2649L194.834 12.0578L197.151 12.8239L199.441 13.5582L201.707 14.2564L203.948 14.9144L206.167 15.5284L208.365 16.0952L210.542 16.6118L212.703 17.0754L214.847 17.4839L216.978 17.8352L219.096 18.1277L221.206 18.36L223.308 18.531L225.404 18.6399L227.498 18.6863L229.591 18.6699L231.686 18.5908L233.786 18.4494L235.891 18.2463L238.005 17.9824L240.13 17.659L242.267 17.2776L244.419 16.84L246.589 16.3485L248.777 15.8053L250.985 15.2135L253.216 14.5761L255.469 13.8966L257.748 13.179L260.052 12.4275L262.383 11.6468L264.741 10.8418L267.126 10.0181L269.539 9.18149L271.98 8.33812L274.447 7.49461L276.94 6.6579L279.457 5.8353L281.997 5.0344L284.559 4.2631L287.138 3.52951L289.734 2.84195L292.342 2.20885L294.959 1.63871L297.581 1.14001L300.204 0.721149L302.823 0.390321L305.433 0.15546L308.029 0.0241202L310.607 0.00338513L313.16 0.0997678L315.682 0.319114L318.169 0.666512L320.615 1.1462L323.014 1.76152L325.361 2.51479L327.652 3.40733L329.882 4.43938L332.047 5.61008L334.143 6.91749L336.167 8.3586L338.116 9.92934L339.99 11.6247L341.785 13.4386L343.503 15.3643L345.143 17.3941L346.706 19.5198L348.193 21.7326L349.607 24.0232L350.95 26.382L352.225 28.7991L353.438 31.2646L354.591 33.7684L355.69 36.3006L356.74 38.8514L357.747 41.4111L358.716 43.9706L359.655 46.5209L360.569 49.0532L361.466 51.5596L362.351 54.0321L363.234 56.4636L364.119 58.847L365.016 61.176L365.931 63.4445L366.873 65.6469L367.849 67.7781L368.867 69.8329L369.935 71.807L371.061 73.6958L372.255 75.4954L373.526 77.2018L374.882 78.8112L376.334 80.3199L377.888 81.7283L379.541 83.0456L381.289 84.2812L383.129 85.4445L385.056 86.5442L387.066 87.589L389.155 88.5871L391.318 89.5468L393.551 90.4758L395.847 91.382L398.201 92.273L400.606 93.1563L403.056 94.0391L405.545 94.9288L408.064 95.8323L410.605 96.7565L413.16 97.708L415.721 98.6934L418.278 99.7186L420.822 100.79L423.343 101.912L425.831 103.091L428.276 104.331L430.668 105.636L432.998 107.01L435.256 108.456L437.431 109.976L439.515 111.573L441.5 113.247L443.377 114.999L445.139 116.83L446.78 118.737L448.294 120.72L449.676 122.776L450.924 124.903L452.033 127.097L453.003 129.354L453.834 131.671L454.526 134.042L455.081 136.462L455.502 138.927L455.792 141.43L455.956 143.967L456 146.531L455.929 149.118L455.751 151.721L455.473 154.336L455.102 156.957L454.647 159.58L454.116 162.2L453.517 164.814L452.858 167.417L452.15 170.006L451.398 172.577L450.613 175.13L449.801 177.66L448.972 180.167L448.131 182.649L447.287 185.104L446.446 187.532L445.614 189.933L444.798 192.306L444.003 194.652L443.235 196.971L442.498 199.264L441.796 201.531L441.135 203.775L440.517 205.995L439.947 208.195L439.426 210.374L438.958 212.536L438.545 214.681L438.189 216.813L437.892 218.933L437.655 221.042L437.479 223.145L437.365 225.242L437.314 227.336L437.311 228.003Z" fill="#2C3442"/>
</svg>
