<svg width="231" height="232" viewBox="0 0 231 232" fill="none" xmlns="http://www.w3.org/2000/svg">
<path fill-rule="evenodd" clip-rule="evenodd" d="M221.532 116.47L221.548 117.53L221.596 118.592L221.675 119.656L221.785 120.723L221.926 121.795L222.097 122.873L222.297 123.958L222.526 125.05L222.781 126.151L223.062 127.262L223.368 128.383L223.696 129.516L224.045 130.661L224.413 131.818L224.797 132.989L225.196 134.173L225.606 135.37L226.025 136.582L226.45 137.808L226.878 139.047L227.304 140.3L227.727 141.566L228.141 142.844L228.544 144.134L228.93 145.434L229.297 146.743L229.639 148.059L229.952 149.381L230.233 150.708L230.476 152.037L230.678 153.365L230.835 154.691L230.941 156.012L230.995 157.325L230.991 158.628L230.928 159.918L230.802 161.192L230.61 162.447L230.35 163.68L230.022 164.89L229.624 166.072L229.155 167.226L228.615 168.347L228.005 169.436L227.327 170.489L226.581 171.505L225.77 172.484L224.896 173.424L223.964 174.324L222.975 175.185L221.935 176.006L220.847 176.788L219.716 177.533L218.547 178.24L217.345 178.912L216.114 179.551L214.86 180.157L213.588 180.735L212.302 181.285L211.009 181.812L209.712 182.317L208.416 182.804L207.126 183.276L205.845 183.737L204.58 184.19L203.332 184.638L202.105 185.085L200.904 185.534L199.732 185.99L198.59 186.457L197.483 186.938L196.412 187.437L195.381 187.958L194.391 188.506L193.445 189.084L192.544 189.698L191.691 190.352L190.888 191.05L190.136 191.798L189.434 192.597L188.777 193.446L188.161 194.343L187.579 195.285L187.029 196.272L186.506 197.3L186.006 198.368L185.523 199.472L185.056 200.611L184.599 201.781L184.149 202.98L183.702 204.205L183.254 205.451L182.802 206.715L182.342 207.995L181.871 209.284L181.385 210.58L180.882 211.877L180.357 213.171L179.808 214.457L179.233 215.731L178.629 216.986L177.993 218.219L177.324 219.424L176.619 220.596L175.878 221.73L175.099 222.821L174.28 223.866L173.423 224.858L172.526 225.796L171.589 226.674L170.614 227.49L169.6 228.241L168.55 228.925L167.464 229.541L166.345 230.086L165.194 230.561L164.014 230.965L162.807 231.298L161.575 231.563L160.321 231.76L159.049 231.892L157.76 231.96L156.458 231.968L155.146 231.919L153.825 231.817L152.5 231.664L151.171 231.466L149.843 231.225L148.516 230.948L147.193 230.637L145.876 230.297L144.567 229.932L143.266 229.547L141.976 229.145L140.697 228.732L139.43 228.31L138.176 227.883L136.935 227.456L135.709 227.03L134.496 226.611L133.297 226.2L132.112 225.8L130.94 225.414L129.782 225.045L128.636 224.694L127.502 224.364L126.38 224.057L125.269 223.774L124.167 223.516L123.074 223.286L121.989 223.084L120.91 222.91L119.838 222.767L118.77 222.654L117.706 222.573L116.644 222.522L115.583 222.504L114.523 222.517L113.461 222.562L112.398 222.639L111.33 222.747L110.259 222.885L109.182 223.054L108.098 223.252L107.006 223.478L105.906 223.731L104.796 224.01L103.675 224.314L102.543 224.64L101.4 224.988L100.243 225.354L99.074 225.737L97.8911 226.135L96.6943 226.545L95.4837 226.963L94.2591 227.388L93.0207 227.815L91.7689 228.242L90.504 228.665L89.2268 229.08L87.9382 229.484L86.6392 229.872L85.3309 230.24L84.015 230.584L82.693 230.9L81.3667 231.184L80.0383 231.43L78.7097 231.635L77.3835 231.795L76.0622 231.906L74.7482 231.964L73.4444 231.965L72.1535 231.907L70.8783 231.786L69.6216 231.599L68.3862 231.345L67.1748 231.022L65.99 230.63L64.8343 230.166L63.7098 229.632L62.6187 229.028L61.5627 228.355L60.5433 227.614L59.5618 226.808L58.619 225.94L57.7156 225.012L56.8517 224.027L56.0272 222.991L55.2417 221.907L54.4943 220.779L53.784 219.613L53.1092 218.413L52.4682 217.184L51.859 215.932L51.2794 214.661L50.7268 213.376L50.1986 212.083L49.6917 210.786L49.2033 209.49L48.73 208.199L48.2685 206.918L47.8155 205.651L47.3673 204.402L46.9204 203.174L46.471 201.97L46.0155 200.795L45.55 199.651L45.0705 198.541L44.5731 197.467L44.0537 196.433L43.5082 195.44L42.9323 194.49L42.3215 193.586L41.6713 192.729L40.9768 191.922L40.2331 191.166L39.4379 190.46L38.5928 189.799L37.6998 189.18L36.7607 188.596L35.7776 188.043L34.7527 187.518L33.6882 187.016L32.5866 186.532L31.4504 186.064L30.2825 185.606L29.0857 185.156L27.8632 184.709L26.6186 184.261L25.3553 183.81L24.0772 183.35L22.7884 182.88L21.4932 182.396L20.196 181.894L18.9014 181.371L17.6144 180.824L16.3397 180.251L15.0824 179.649L13.8476 179.016L12.6403 178.35L11.4656 177.648L10.3284 176.909L9.23344 176.133L8.18532 175.318L7.18833 174.464L6.24647 173.57L5.36336 172.636L4.5422 171.664L3.78575 170.653L3.09627 169.606L2.4755 168.523L1.92464 167.406L1.44435 166.258L1.03472 165.08L0.695304 163.875L0.425125 162.645L0.222691 161.393L0.0860335 160.122L0.0127412 158.834L0 157.533L0.0446394 156.222L0.14318 154.902L0.291884 153.576L0.486804 152.248L0.723834 150.919L0.998756 149.592L1.30729 148.269L1.64512 146.952L2.00796 145.642L2.39157 144.34L2.7918 143.049L3.2046 141.769L3.62606 140.501L4.05242 139.246L4.48009 138.004L4.90565 136.776L5.32589 135.562L5.73777 134.362L6.13847 133.176L6.52535 132.004L6.89598 130.844L7.24812 129.697L7.57972 128.563L7.88893 127.44L8.17408 126.327L8.43366 125.225L8.66636 124.131L8.87101 123.045L9.04663 121.967L9.19239 120.894L9.3076 119.826L9.39172 118.761L9.44438 117.699L9.46534 116.638L9.45451 115.578L9.41192 114.517L9.33779 113.453L9.23243 112.386L9.09634 111.315L8.93015 110.238L8.73464 109.155L8.51076 108.064L8.2596 106.964L7.98245 105.855L7.68073 104.735L7.35607 103.604L7.01026 102.462L6.64528 101.306L6.26332 100.138L5.86675 98.9561L5.45813 97.7605L5.04024 96.5509L4.61603 95.3274L4.18867 94.0901L3.76151 92.8393L3.33809 91.5755L2.92212 90.2992L2.51745 89.0115L2.1281 87.7132L1.75818 86.4056L1.41192 85.0903L1.09359 83.7687L0.807496 82.4426L0.557935 81.1143L0.349149 79.7856L0.185287 78.4592L0.0703511 77.1373L0.00815147 75.8226L0.00225539 74.5179L0.055937 73.2258L0.172129 71.9492L0.353375 70.691L0.601791 69.4538L0.91902 68.2404L1.30621 67.0534L1.76398 65.8952L2.2924 64.7682L2.89101 63.6743L3.55877 62.6154L4.29411 61.5931L5.09493 60.6085L5.95863 59.6626L6.88216 58.7561L7.862 57.889L8.89429 57.0614L9.97481 56.2728L11.0991 55.5224L12.2624 54.8091L13.4598 54.1315L14.6864 53.4879L15.9371 52.8763L17.2067 52.2944L18.4904 51.7398L19.7831 51.2097L21.08 50.7013L22.3764 50.2114L23.6677 49.7371L24.9496 49.2748L26.218 48.8212L27.469 48.3728L28.6989 47.9259L29.9042 47.4768L31.0817 47.0219L32.2283 46.5573L33.3412 46.0791L34.4178 45.5833L35.4556 45.0658L36.4522 44.5226L37.4055 43.9492L38.3135 43.3413L39.174 42.6944L39.9853 42.0036L40.7454 41.264L41.4551 40.4728L42.1189 39.6317L42.7417 38.7424L43.3283 37.8069L43.883 36.8272L44.4102 35.8055L44.9142 34.7441L45.3989 33.6453L45.8685 32.5118L46.3268 31.3463L46.7777 30.1516L47.225 28.9311L47.6724 27.6881L48.1235 26.4261L48.5819 25.1491L49.051 23.861L49.5343 22.5661L50.0349 21.2688L50.556 19.9739L51.1006 18.686L51.6713 17.4102L52.2708 16.1513L52.9014 14.9145L53.5652 13.7048L54.2641 12.5274L54.9996 11.387L55.7728 10.2885L56.5848 9.23644L57.4361 8.23522L58.327 7.28882L59.2573 6.4009L60.2265 5.57469L61.2339 4.81299L62.2784 4.1181L63.3586 3.4918L64.4726 2.93534L65.6186 2.44941L66.7944 2.03416L67.9976 1.68918L69.2256 1.41353L70.4758 1.20577L71.7454 1.06395L73.0316 0.985713L74.3317 0.968262L75.6427 1.00846L76.962 1.10284L78.2869 1.24769L79.615 1.43908L80.9437 1.67291L82.2709 1.94498L83.5945 2.25099L84.9125 2.58665L86.2234 2.94766L87.5255 3.32978L88.8176 3.72884L90.0985 4.14079L91.3673 4.5617L92.6234 4.98781L93.8661 5.4155L95.0951 5.84136L96.3102 6.26214L97.5114 6.6748L98.6987 7.07649L99.8723 7.46457L101.033 7.83658L102.18 8.19027L103.316 8.52358L104.44 8.83464L105.553 9.12176L106.656 9.38343L107.751 9.61832L108.837 9.82525L109.916 10.0032L110.99 10.1514L112.058 10.269L113.123 10.3557L114.185 10.4108L115.246 10.4343L116.306 10.426L117.367 10.386L118.431 10.3143L119.497 10.2114L120.568 10.0778L121.645 9.91395L122.727 9.72074L123.818 9.49908L124.917 9.25005L126.025 8.97491L127.144 8.67509L128.274 8.35218L129.415 8.00798L130.57 7.64446L131.737 7.26376L132.918 6.86826L134.112 6.4605L135.321 6.04323L136.543 5.61941L137.779 5.19218L139.029 4.76487L140.292 4.34102L141.567 3.9243L142.854 3.51858L144.151 3.12786L145.458 2.75624L146.773 2.40793L148.094 2.08722L149.42 1.7984L150.748 1.54577L152.077 1.33358L153.404 1.16599L154.726 1.04701L156.041 0.98048L157.347 0.969977L158.64 1.0188L159.918 1.12992L161.178 1.3059L162.417 1.5489L163.632 1.86061L164.821 2.2422L165.982 2.69434L167.111 3.21716L168.208 3.81021L169.27 4.47252L170.295 5.20255L171.283 5.99826L172.232 6.85707L173.141 7.77596L174.011 8.75147L174.842 9.77974L175.634 10.8566L176.387 11.9776L177.103 13.1379L177.784 14.3328L178.43 15.5573L179.044 16.8062L179.628 18.0746L180.185 19.3574L180.717 20.6495L181.227 21.9463L181.718 23.2429L182.194 24.5348L182.657 25.8176L183.111 27.0873L183.56 28.3398L184.006 29.5715L184.455 30.7789L184.909 31.9587L185.373 33.1079L185.85 34.2236L186.344 35.3032L186.86 36.3442L187.401 37.3442L187.972 38.301L188.577 39.2127L189.22 40.0771L189.908 40.8923L190.643 41.6566L191.43 42.3701L192.267 43.0374L193.153 43.6633L194.085 44.2526L195.061 44.8097L196.079 45.339L197.138 45.8446L198.234 46.3308L199.365 46.8014L200.528 47.2605L201.72 47.7118L202.939 48.1593L204.18 48.6065L205.441 49.0572L206.716 49.5149L208.004 49.9831L209.298 50.4651L210.596 50.9642L211.891 51.4836L213.179 52.0262L214.456 52.5947L215.717 53.1919L216.956 53.8199L218.168 54.481L219.348 55.1771L220.491 55.9095L221.593 56.6798L222.649 57.4887L223.655 58.3369L224.605 59.2246L225.498 60.1517L226.329 61.1179L227.096 62.1223L227.797 63.1639L228.428 64.2413L228.99 65.3527L229.482 66.4963L229.903 67.6698L230.253 68.8709L230.535 70.0971L230.748 71.3456L230.895 72.6138L230.978 73.8988L231 75.1978L230.964 76.5081L230.874 77.8268L230.733 79.1514L230.545 80.4793L230.315 81.8081L230.046 83.1355L229.742 84.4595L229.409 85.778L229.049 87.0895L228.669 88.3924L228.271 89.6853L227.86 90.9672L227.44 92.237L227.014 93.4942L226.586 94.738L226.16 95.9681L225.739 97.1843L225.325 98.3866L224.923 99.575L224.533 100.75L224.16 101.911L223.805 103.06L223.47 104.196L223.157 105.321L222.868 106.435L222.604 107.539L222.367 108.634L222.158 109.721L221.977 110.801L221.827 111.875L221.707 112.944L221.618 114.009L221.56 115.071L221.534 116.132L221.532 116.47Z" fill="#3D50F9"/>
</svg>
